<?xml version='1.0' encoding='utf-8'?>
<svg xmlns="http://www.w3.org/2000/svg" enable-background="new 531.6413 -0.0086 1496.7145 1600" version="1.1" viewBox="531.6413 -0.0086 1496.7145 1600">
<path d="m1991.4 1084c-23.012-27.067-48.673-28.958-80.824 5.5623-33.679 1.0272-57.203 1.6256-90.968 2.7802 18.087-15.283 27.721-26.972 45.811-42.212 27.808 8.8281 54.973 5.8309 66.753-25.196 9.0228-10.486 19.036-16.649 42.048-17.507-15.941-13.311-29.192-18.176-57.918-4.9083-42.393-19.051-45.926 7.9785-53.501 25.687-28.726 18.853-51.934 34.831-80.661 53.664-58.552-17.081-106.09-26.652-164.59-43.686 12.7-13.139 25.422-25.101 38.122-38.285 3.332-11.124-2.5172-16.782-12.107-18.488-94.619-19.17-148.7-56.51-181.61-151.34-13.772-39.68 15.937-51.461 26.178-27.159 14.187 33.667 29.689 70.69 72.152 99.312 14.678 9.893 58.238 1.8586 32.559-22.251-26.847-21.361-38.258-30.725-51.538-82.951 0.0032-26.642 27.692-38.504 43.193-13.089 16.408 52.139 18.178 74.636 47.938 108.15 22.622 25.472 52.191 42.496 66.753 42.212 26.461-0.5162 52.97-28.282 17.67-48.429-51.671-20.231-70.632-47.955-78.206-74.28-8.3282-45.968 0.7393-68.275 29.123-45.648 40.278 44.661 117.08 128.01 157.23 166.72 45.16 33.827 96.792 34.901 138.09 0.6549 23.517-26.492 15.137-55.185-21.76-48.92-83.215 6.8853-146.4-33.625-215.48-142.83-13.685-24.843-17.417-60.144 12.598-33.868 34.498 45.601 84.742 84.52 131.54 101.11 46.8 16.595 90.157 10.857 100.62-7.0355 17.357-29.683 13.418-62.33-17.997-51.538-25.75 8.8475-62.137 11.144-99.967-3.2701-37.83-14.414-77.102-45.539-118.94-98.33-14.251-29.901-9.5177-55.159 19.306-39.758 68.48 56.813 156.71 102.81 201.9 75.098 33.092-20.295 33.724-72.16-8.3445-68.881-84.838 11.465-116.91-7.0565-198.3-77.388-18.623-13.531-17.293-47.708 12.107-25.851 68.578 43.106 162.06 60.001 198.79 37.467 33.048-20.274 28.154-81.989-27.487-60.046-44.445 26.439-93.71 25.656-192.24-43.193-24.832-20.096-6.3235-46.545 14.071-35.177 79.234 44.17 194.63 63.003 224.8-26.669 11.572-34.393-9.4637-54.418-40.576-30.596-67.99 61.5-145.19 31.246-188.32 0.3272-11.289-0.4429-35.221-43.268 4.7451-36.649 103.21 23.144 205.22 3.1193 223.66-68.39 10.879-23.196-10.306-64.137-47.938-29.777-49.613 47.858-102.16 49.5-168.03 49.083-33.679-6.8089-33.956-43.12-5.89-48.429 52.095 1.1617 103.59-21.162 144.8-43.848 40.144-22.503 73.602-54.252 84.096-98.166 6.5005-39.344-32.167-81.082-55.628-39.431-34.445 61.155-110.97 118.59-195.84 128.93-4.3822-7.2256-15.631-25.785-29.287-20.615-49.961 18.916-119.02 50.702-175.88 82.132-12.344 6.8225 2.1523 39.842 4.9083 52.519 2.8356 32.314-7.1152 52.949-17.343 64.954-10.226 12.008-38.123 19.895-53.827 15.706-31.409-8.3784-48.306-35.637-43.03-84.096 1.6361-5.123 2.9854-28.406 28.632-58.736 12.887-15.241 30.933-34.692 59.554-50.229 28.621-15.536 71.916-24.158 124.02-35.504 31.706-6.2199 47.811-18.155 49.738-30.923-15.174 3.5146-40.07 16.4-56.445 13.253-16.104-3.0958-24.231-10.87-31.413-15.38 11.955-2.5 33.93 0.3482 53.501 0.3272 19.571-0.0189 36.837-4.1497 48.429-6.0533 24.088-3.9539 43.204-13.785 54.646-35.831 4.9481-23.737-10.931-28.039-25.851-12.761-12.654 12.958-15.188 18.256-23.233 23.887-8.0455 5.6293-21.579 11.07-31.25 12.761-19.618 3.4303-38.95 7.2926-63.972 1.3099 4.944-6.1947 16.075-16.209 26.178-22.415 10.102-6.2052 19.996-9.2586 29.45-7.6894 6.3099 1.0586 14.523 6.6737 21.27 17.016 4.1665-26.06-3.2162-55.345-74.116-43.194 0.9465-19.535-41.299-28.079-66.753-27.65l-0.0267-0.0393c-14.415 0.2429-43.988 8.6957-65.281 18.652-33.678 10.205-67.151 17.671-106.35 20.452 22.636 19.012 27.083 20.099 49.902 36.322-34.553 12.568-61.316 38.621-73.298 55.63 30.181 1.4466 40.147-1.0932 50.392 3.2702-42.04 12.176-61.072 19.311-83.279 41.556 7.8616 1.4314 19.549 3.5287 24.542 5.3994 5.1628 1.935 3.0256 4.5885-0.4895 8.3439-9.6313 6.0272-46.462 49.417-57.4 59.528-10.936-10.111-47.768-53.501-57.399-59.528-3.5151-3.7555-5.6528-6.4089-0.49-8.3439 4.9927-1.8707 16.68-3.9675 24.542-5.3994-22.208-22.245-41.239-29.38-83.279-41.556 10.245-4.3633 20.211-1.8235 50.392-3.2702-11.982-17.009-38.745-43.062-73.298-55.63 22.819-16.222 27.266-17.31 49.902-36.322-39.196-2.7801-72.669-10.246-106.35-20.452-21.292-9.956-50.865-18.409-65.281-18.652l-0.0267 0.0393c-25.454-0.4293-67.7 8.1151-66.753 27.65-70.899-12.151-78.282 17.134-74.116 43.194 6.7466-10.342 14.96-15.957 21.27-17.016 9.455-1.5691 19.348 1.4843 29.45 7.6894 10.103 6.2057 21.234 16.22 26.178 22.415-25.023 5.9822-44.355 2.1204-63.973-1.3099-9.6711-1.6916-23.204-7.1319-31.25-12.761-8.0449-5.6303-10.578-10.929-23.233-23.887-14.919-15.277-30.799-10.976-25.85 12.761 11.442 22.046 30.558 31.877 54.646 35.831 11.592 1.9037 28.858 6.0345 48.429 6.0533 19.571 0.0209 41.546-2.8272 53.502-0.3272-7.1826 4.5094-15.31 12.284-31.414 15.38-16.375 3.1476-41.271-9.7376-56.445-13.253 1.9268 12.767 18.031 24.702 49.738 30.923 52.102 11.345 95.396 19.967 124.02 35.504 28.621 15.537 46.667 34.988 59.555 50.229 25.647 30.33 26.997 53.613 28.632 58.736 5.2765 48.459-11.621 75.718-43.029 84.096-15.706 4.1889-43.601-3.6989-53.828-15.706-10.228-12.005-20.178-32.64-17.343-64.954 2.756-12.677 17.252-45.696 4.9083-52.519-56.867-31.43-125.92-63.216-175.88-82.132-13.656-5.1696-24.904 13.39-29.287 20.615-84.875-10.336-161.4-67.771-195.84-128.93-23.461-41.652-62.128 0.0859-55.628 39.431 10.494 43.914 43.952 75.663 84.096 98.166 41.201 22.687 92.7 45.01 144.8 43.848 28.066 5.3094 27.788 41.62-5.89 48.429-65.869 0.4168-118.42-1.2251-168.03-49.083-37.632-34.36-58.818 6.5811-47.938 29.777 18.436 71.509 120.45 91.533 223.66 68.39 39.966-6.6188 16.034 36.206 4.7451 36.649-43.123 30.919-120.33 61.173-188.32-0.3272-31.112-23.823-52.147-3.7979-40.576 30.596 30.168 89.672 145.57 70.838 224.8 26.669 20.394-11.368 38.902 15.08 14.071 35.177-98.534 68.849-147.8 69.632-192.24 43.193-55.64-21.944-60.535 39.771-27.487 60.046 36.733 22.534 130.21 5.6387 198.79-37.467 29.4-21.857 30.73 12.32 12.107 25.851-81.383 70.331-113.46 88.853-198.3 77.388-42.068-3.2795-41.436 48.586-8.3434 68.881 45.182 27.709 133.42-18.285 201.9-75.098 28.823-15.401 33.556 9.8571 19.306 39.758-41.842 52.791-81.116 83.916-118.94 98.33-37.83 14.415-74.217 12.118-99.967 3.2701-31.414-10.793-35.354 21.855-17.997 51.538 10.463 17.892 53.82 23.63 100.62 7.0355 46.802-16.592 97.046-55.511 131.54-101.11 30.015-26.277 26.282 9.0245 12.598 33.868-69.08 109.21-132.26 149.72-215.48 142.83-36.898-6.2653-45.278 22.427-21.76 48.92 41.294 34.246 92.928 33.172 138.09-0.6549 40.147-38.708 116.95-122.06 157.23-166.72 28.384-22.628 37.451-0.3204 29.123 45.648-7.5742 26.324-26.535 54.049-78.206 74.28-35.3 20.146-8.7911 47.913 17.67 48.429 14.562 0.2838 44.132-16.739 66.753-42.212 29.76-33.51 31.53-56.008 47.938-108.15 15.502-25.416 43.191-13.553 43.194 13.089-13.28 52.226-24.69 61.59-51.538 82.951-25.68 24.11 17.88 32.144 32.558 22.251 42.463-28.622 57.964-65.645 72.152-99.312 10.241-24.302 39.949-12.521 26.178 27.159-32.911 94.831-86.99 132.17-181.61 151.34-9.5899 1.7058-15.439 7.3643-12.107 18.488 12.7 13.184 25.422 25.146 38.122 38.285-58.508 17.036-106.04 26.606-164.59 43.686-28.726-18.833-51.934-34.812-80.661-53.664-7.5748-17.708-11.107-44.738-53.501-25.687-28.726-13.267-41.978-8.4025-57.918 4.9083 23.012 0.8575 33.025 7.0204 42.048 17.507 11.78 31.026 38.946 34.024 66.753 25.196 18.09 15.24 27.724 26.929 45.811 42.212-33.765-1.1544-57.289-1.7529-90.968-2.7802-32.15-34.52-57.811-32.629-80.824-5.5623-17.54 2.6952-24.975 3.0721-36.976 24.378 18.875-7.7466 30.75-10.069 38.94-1.635 34.181 19.817 56.511 15.393 73.462 0 32.978 2.0167 62.694 3.7225 95.713 5.89-12.129 10.309-28.774 15.778-40.903 26.178-49.53-14.17-75.381 4.9037-84.096 45.321-6.6382 16.312-9.7465 33.107-6.8717 50.556 4.7932-15.96 12.502-29.682 26.669-38.285 44.146 11.213 60.746-6.809 63.154-33.213 21.28-17.363 53.368-21.192 74.607-38.776 24.832 7.9497 36.835 12.874 61.845 20.778 8.8911 27.02 29.012 37.718 61.681 30.759 38.89 1.2203 32.024 17.177 35.177 29.941 10.335-18.33 10.047-36.156-13.907-52.356-8.7161-23.677-28.025-34.446-53.337-20.778-23.827-6.7649-30.092-16.487-53.828-23.233 60.041-19.138 102.63-23.444 162.63-42.539 15.018 14.166 26.92 24.337 42.048 36.976 7.9722 4.7587 15.605 5.9576 20.288 0 37.596-54.414 54.386-102.37 89.332-138.25 13.351-14.846 30.218-34.876 48.92-39.758 9.3512-2.4407 20.818-0.9518 28.141 7.0356 7.3224 7.9863 13.074 22.706 10.635 44.666-3.501 31.522-11.117 41.475-19.961 60.372-8.8433 18.898-19.651 30.522-30.759 44.993-22.217 28.942-51.53 45.787-68.881 57.1-34.7 22.627-49.375 12.724-76.243 11.289-34.725 3.8969-43.966 20.81-15.543 44.175 26.571 13.824 50.453 15.531 69.863 11.943 16.665-3.0817 36.169-24.592 50.065-36.158 15.642-18.071 41.576 3.3596 23.887 24.378-32.143 38.192-64.26 63.373-103.89 62.827-41.647 5.6051-33.856 29.005-6.2172 40.412 49.744 20.53 94.657-17.924 117.47-43.193 17.604-19.258 30.107-20.009 26.997 9.8162-17.475 53.997-41.356 74.856-80.334 77.552-31.616-2.9357-31.957 21.469-8.8351 37.958 52.671 36.456 90.815-25.627 108.64-63.154 12.701-33.852 32.179-17.753 34.196 10.144 0.2629 37.274-16.579 67.707-61.68 105.86 34.506 54.98 74.736 110.9 109.29 166.06l0.0011 0.0059c0-0.0012 5e-4 -0.0016 0.0011-0.0026 5e-4 0.0011 0.0011 0.0016 0.0011 0.0026l0.0012-0.0059c34.552-55.159 74.78-111.08 109.29-166.06-45.101-38.149-61.944-68.582-61.681-105.86 2.0157-27.897 21.495-43.996 34.195-10.144 17.822 37.527 55.967 99.61 108.64 63.154 23.122-16.489 22.78-40.893-8.8351-37.958-38.977-2.6953-62.858-23.554-80.333-77.552-3.1099-29.826 9.3921-29.075 26.996-9.8162 22.816 25.269 67.729 63.723 117.47 43.193 27.64-11.407 35.43-34.807-6.2172-40.412-39.634 0.5466-71.751-24.634-103.89-62.827-17.69-21.018 8.2444-42.448 23.887-24.378 13.896 11.566 33.4 33.077 50.065 36.158 19.41 3.5879 43.292 1.8811 69.863-11.943 28.422-23.365 19.183-40.278-15.544-44.175-26.868 1.4344-41.543 11.338-76.243-11.289-17.35-11.313-46.664-28.158-68.881-57.1-11.108-14.471-21.916-26.095-30.759-44.993-8.844-18.897-16.46-28.85-19.961-60.372-2.4393-21.96 3.3125-36.68 10.635-44.666 7.323-7.9874 18.79-9.4763 28.141-7.0356 18.702 4.8817 35.569 24.912 48.92 39.758 34.945 35.881 51.736 83.837 89.332 138.25 4.6832 5.9576 12.316 4.7587 20.288 0 15.128-12.639 27.03-22.809 42.048-36.976 59.997 19.095 102.59 23.401 162.63 42.539-23.736 6.7461-30.001 16.468-53.827 23.233-25.313-13.668-44.622-2.8989-53.337 20.778-23.954 16.199-24.242 34.025-13.907 52.356 3.153-12.763-3.713-28.721 35.177-29.941 32.669 6.9591 52.79-3.7397 61.681-30.759 25.01-7.9047 37.013-12.829 61.845-20.778 21.239 17.584 53.327 21.414 74.607 38.776 2.4083 26.404 19.008 44.427 63.154 33.213 14.167 8.6025 21.875 22.325 26.669 38.285 2.8749-17.449-0.2335-34.243-6.8712-50.556-8.7157-40.417-34.566-59.49-84.096-45.321-12.13-10.4-28.775-15.868-40.903-26.178 33.019-2.1675 62.735-3.8733 95.713-5.89 16.95 15.393 39.281 19.817 73.462 0 8.1901-8.4335 20.065-6.1115 38.94 1.635-12-21.306-19.434-21.683-36.974-24.378zm-453.86-1038.3c20.626 0 33.7 6.446 33.704 15.053 0 8.7607-13.077 16.524-33.704 16.524-20.714 0-33.541-7.1146-33.541-15.871-1e-4 -8.6063 12.828-15.707 33.541-15.707zm-515.04 31.577c-20.627 0-33.704-7.7638-33.704-16.524 0.0037-8.6067 13.077-15.053 33.704-15.053 20.713 0 33.541 7.1 33.541 15.707-1e-4 8.756-12.828 15.871-33.541 15.871z"/>
</svg>