<?xml version="1.0" encoding="UTF-8"?>
<svg viewBox="0 0 657.97 687.05" xmlns="http://www.w3.org/2000/svg">
 <g fill="#fff" fill-rule="evenodd" stroke="#000" stroke-width="4">
  <path d="m345.55 368.48l-14.077-0.5388 3.0037-23.899 16.52-3.4572-5.4463 27.895z"/>
  <g stroke-opacity=".951">
   <path d="m400.58 378.47s-0.78909 0.21198-7.4582 1.4049c-6.6691 1.193-13.5 4.8286-19.218 3.3669-5.5485-1.4185-5.9779-1.5634-13.312-4.4936-7.3343-2.9302-10.421-1.6519-16.025-7.227-5.7489-5.7189-8.5642-9.2769-8.5384-16.085 0.025848-6.8078 8.6418-11.146 8.6418-11.146l55.91 34.18z"/>
   <path d="m570.7 345.21c-4.6318-4.3561-8.708-8.1522-16.994-4.9917 6.2243-6.98 21.752-15.598 23.621-1.9557l-6.627 6.9474z"/>
   <path d="m571.76 358.04c-8.8738-7.3084-7.7351-15.432-7.1892-16.39 0.60834-1.0668 9.5653-9.5393 11.1-9.7194 1.4577-0.17114 4.1621 5.6403 5.4338 13.501 1.2136 7.5014 12.695 10.925 12.695 10.925s-13.267 8.9078-22.04 1.6827z"/>
   <path d="m357.76 332.44c1.6106-3.5266-3.8349-11.259-12.263-16.672 16.462-0.40552 22.022 13.05 20.147 16.272l-7.8843 0.4z"/>
   <path d="m325.79 364.6c-1.9343-1.0961-12.939-5.0394-18.056 6.6303-0.38638-16.442 14.125-19.649 20.413-15.975l-2.3568 9.3445z"/>
   <path d="m326.96 365.86l-4.4012 19.321c5.4828-5.6237 10.629-7.2304 16.661-9.3962l-12.26-9.9251z"/>
   <path d="m322.11 341.32c-3.4534-3.2512-8.0324-6.346-13.748-6.3911 7.9465-8.3404 28.86-2.9696 27.591 2.9598l-13.843 3.4313z"/>
   <path d="m613.92 370.85c0.25079 7.4074 1.5281 13.796 4.9454 19.728-5.2615-1.7554-8.1651-3.8474-10.202-6.5464-1.958-2.595-0.36652-9.577-4.7798-14.335l10.036 1.1537z"/>
   <path d="m588.51 378.65c-8.7493 2.7558-11.186 7.9527-8.3434 18.283-9.1331-10.447-8.5921-22.345 3.5508-29.271l4.7926 10.988z"/>
   <path d="m565.6 366.39c-4.5889 0.66431-14.474 0.65784-17.707 11.461-6.4009-11.8 9.0482-24.354 20.064-19.912l-2.3563 8.4511z"/>
   <path d="m114.2 372.55c-4.6844 1.7812-12.222 5.4163-10.563 16.544-5.3307-8.9175-7.7212-16.843 5.7996-28.436l4.7633 11.892z"/>
   <path d="m91.294 358.14c-3.7966 0.57398-11.716 1.526-18.804 16.12 0.957-19.459 15.118-27.386 22.767-25.918l-3.9624 9.798z"/>
   <path d="m93.642 334.1c-3.7452-4.3647-12.208-6.7847-24.129-3.0355 8.5347-7.8836 18.038-12.427 27.781-2.5441l-3.6521 5.5796z"/>
   <path d="m117.23 324.18c8.6276-15.145-8.272-26.854-18.949-23.231 11.623 5.8666 12.279 5.4111 10.73 16.919l8.2191 6.3116z"/>
   <path d="m61.968 207.58c-5.6056-3.054-16.93-2.3861-24.454 6.764 5.1363-18.712 16.704-17.522 28.616-13.3l-4.1627 6.5359z"/>
   <path d="m63.894 186.26c-2.1607-5.4526-14.221-9.4275-23.729-4.7467 12.263-13.324 24.628-6.859 29.149 0.11066l-5.4194 4.636z"/>
   <path d="m86.444 173.92c1.4729-9.2673-4.7224-17.851-15.307-20.657 12.598-1.415 20.809 3.3797 22.947 12.801 0.96345 4.2458-0.20111 9.9958-1.8593 15.976l-5.7803-8.1203z"/>
   <path d="m110.69 184.7c2.0117-0.81293 13.413-9.7015 3.975-23.304 8.0164 3.6939 21.768 22.83-0.88496 28.368l-3.09-5.0642z"/>
   <path d="m471 290.88c-31.398 21.523-12.832 38.651 5.016 37.857-5.8588 7.624-12.84 9.5062-22.686 10.807 4.5703 4.2214 8.2906 5.8599 13.737 5.785-9.2438 6.1279-18.906 9.2443-30.717 11.923l11.588 5.6336c-11.294 5.1168-21.862 7.5132-37.287 5.8781l13.16 6.9295c-9.8974 2.1123-18.926 1.9347-28.822 3.7604 0 0-6.7706-9.8434-19.15-14.692-12.304-4.819-18.37-3.0437-25.763-9.2705-7.239-6.0968-12.48-13.549-10.106-18.527 2.456-5.1504 8.123-8.5594 13.072-7.8332 5.2642 0.77246 9.8143 0.89722 13.181 1.1967 2.0613 4.4508-7.8527 10.934-4.936 16.607 2.9166 5.6724 8.8277 5.9456 16.602 6.0826 7.7748 0.13696 7.4304-3.519 14.497-5.5347 7.0664-2.0155 7.8443 0.71057 13.769-2.5276 5.9244-3.2381 8.2979-5.5223 9.9289-10.425s-2.6006-3.9871-3.4049-9.1857c-0.80438-5.1986 0.18738-11.608 0.18738-11.608l-10.515 13.862 5.1245-28.502-13.217 8.2626s6.8753-17.746 17.448-27.882 24.843-12.662 24.843-12.662l47.475-9.1359-13.025 33.202z"/>
   <path d="m462.03 275.22c-12.666 1.624-24.473 3.2513-37.156 9.1751 4.5118-5.5247 8.593-10.908 13.96-15.283l19.357-2.0764 3.8387 8.184z"/>
   <path d="m280.73 324.35c33.229-8.6633 36.805-10.224 68.028-28.556 30.269-17.772 52.909-27.437 62.108-28.851 9.6915-1.4896 32.546-0.67035 38.588 0.66095-1.1065-3.1436-32.048-18.152-29.183-15.256 32.801 8.2384 50 38 60.193 48.061 15.27 15.08 25.281 17.081 33.882 20.71l-0.99-10.295c8.1228 8.6344 21.969 12.532 28.255 11.942l-7.1723-8.2599c10.368 0.8623 25.997-0.72156 38.608-4.4844 12.366-3.6896 9.5376-1.5393 13.291 5.0894 3.9228 6.9277 7.0507 15.339 6.6763 21.228-0.38977 6.1311-0.76929 14.633-7.7341 19.494-6.9648 4.8618-13.425-1.6091-20.125-0.047302-6.9982 1.6314-7.2397 9.4916-4.6836 13.875 2.5562 4.3834 6.8209 8.0961 13.134 5.4188 6.3134-2.6775 12.421-10.993 13.878-13.85-2.4851 4.8828-8.7809 9.9703-7.4689 11.049 1.0652 0.87573 2.2759 1.0863 3.2484 2.3992 1.7347 2.3418 3.5785 5.9988 6.9035 6.9112 3.4012 0.93329 10.106-5.2007 11.969-8.1683 4.2708-6.8015 1.7393-15.121 2.4071-17.767 0.14178 2.906 0.4325 10.137-1.0337 16.52 3.8434 4.131 8.3325 1.4385 14.887 1.513 2.7032 0.03064 4.7345-2.2527 6.3519-4.3444 2.4328-3.1463 3.3421-7.0447-0.49054-11.44-6.3833-7.3201 5.0048-9.5531 4.26-21.361-0.71283-11.301-8.7615-9.0786-6.8895-18.812 1.9091-9.9268 5.4442-17.309 2.419-23.466-1.0115-4.6348-4.018 4.1516-7.2347 8.2053 0.86993-8.5524-0.42084-24.7-2.4614-29.338l-5.7009 10.784c-0.31744-8.6039-5.0575-23.174-7.6185-26.271l-2.6254 13.883c-1.1671-7.7448-6.7856-16.865-10.205-22.679 1.0726 7.8343-5.2352 23.649-23.759 23.579-18.523-0.070313-37.211-14.905-50.335-23.86 30.251 2.3168 59.452-2.8494 70.56-17.741 11.32-15.175 2.327-42.036-37.12-49.819-39.544-7.8019-101.44 13.636-118.11 10.114-17.347-3.6656-12.692-15.985-23.03-22.718-10.405-6.7768-17.963-5.3711-32.458-4.2686-14.261 1.0847-20.541 1.9899-26.207-1.6141-6.0471-3.8465-3.4666-6.8309-1.0094-10.295 2.4572-3.4639 7.581-2.2915 12.347-2.0404-3.3-2.8086-14.183-5.945-18.506-2.0994-4.5176 4.019-6.6922 22.669 8.9456 37.392 15.638 14.724 38.288 21.971 65.471 21.296 27.429-0.68179 49.099-7.9316 90.753-12.81 41.711-4.8855 67.971 8.4423 66.638 23.272-1.3087 14.559-33.831 19.453-60.788 16.399-29.842-3.3808-46.024-9.3321-91.04-9.0928-45.024 0.23932-68.473 4.9146-113.27 13.997-45.093 9.1415-59.536-0.88849-65.92 20.312-6.3836 21.201 6.0144 74.194 39.372 65.497z"/>
   <path d="m352.61 376.56c1.8919 1.7914 0.90774 6.0834-3.1128 8.3895-3.9525 2.2671-9.7983 1.156-12.399-1.1721-2.5945-2.3225-5.171-10.419-3.3502-11.594 1.9141-1.2346 2.8649-2.207 5.1006-4.136 2.2314-1.9252 1.7015 0.63684 6.8746 4.9968 2.3224 1.9574 4.9943 1.7235 6.887 3.5156z"/>
   <path d="m335.76 353.73c-0.99536-1.1615-9.8258-1.7728-10.818-1.1221-0.97736 0.64117-4.4621 10.151-4.1085 11.398 0.39587 1.3965 4.0962 4.5262 4.9961 5.322 0.98489 0.87091 7.4311 1.5189 8.0711 1.9153 0.6691 0.41443 3.73-1.7408 4.9482-3.5044 1.2318-1.7832-1.2352-4.557-1.8916-7.0256-1.4532-5.4652-0.19409-5.8123-1.1976-6.9833z"/>
   <path d="m336.93 351.16c-2.2127 2.39-11.726 2.0659-13.216 0.79089-0.77481-0.66296-0.41061-3.8798-1.3316-6.7787-0.92105-2.8988-3.1139-5.484-3.0619-6.2805 0.096741-1.4799 3.8166-5.4145 7.4051-6.834 3.5885-1.4196 5.2302-0.49091 9.9941 3.4173 4.8298 3.9623 1.2986 2.0677 3.1583 6.8633 1.8972 4.8927-0.65384 6.3436-2.9481 8.8217z"/>
   <path d="m412.76 191.41c-6.9953-5.5658-14.633-12.15-37.622-11.96-22.898 0.18896-33.619-20.715-30.562-23.381"/>
   <path d="m126.78 342.28c-11.32-10.273-9.108-15.798-7.8789-18.381 1.285-2.7005-1.412-3.5128-3.1654-5.7423-1.7041-2.1669-4.4434-3.1065-5.4336-3.9072-1.9811-1.6022-2.1148 1.3167-7.1736 2.6223-4.9923 1.2884-8.2772 8.9968-8.2772 8.9968l31.929 16.411z"/>
   <path d="m289.57 335.28c-7.3091 2.7242-14.614 4.3716-23.528 4.3976l8.5916 6.1349c-12.104 4.9794-23.468 4.2184-37.149-0.67944l9.4775 9.1893c-12.4 4.3202-21.371 3.4486-35.539 0.58307l8.4047 8.1084c-14.245 1.621-21.833-0.86066-36.769-6.4213l9.6508 10.805c-7.4702-2.1222-7.476-0.59668-13.276-1.4862-5.7997-0.88946-13.06-3.0367-15.529-3.3296-2.4564-0.2915-2.8885 4.2399-5.839 5.9407-3.0766 1.7736-11.684 1.7343-22.445 2.6071-3.2896 0.26678-4.8267 7.5256-11.168 9.7653-6.4702 2.2849-12.012-3.007-13.43-7.1665-1.3778-4.043-5.5344-7.7385-5.5344-7.7385 5.5481-4.5779 12.964-8.01 17.265-9.2673-8.5624 1.2196-19.239 10.882-21.581 11.405-2.2162 0.49524-9.5331-2.5654-12.296-7.691-2.7625-5.1256 1.2457-12.811 1.2457-12.811 8.7666 0.29169 17.644-0.58533 25.676-2.9537-8.4049 2.3535-24.259 3.2754-27.111 2.5892-2.7728-0.66699-4.1044-6.2075-2.2862-12.393 1.8182-6.1851 8.1675-12.09 9.5592-12.348 2.4896-0.46149 5.3466 4.9473 10.277 8.0966 4.9476 3.1602 10.267 2.997 12.648 4.5538 2.5885 1.6924 5.6047 4.9868 16.684 2.0376 10.744-2.8602 25.277-11.656 35.17-17.302 9.8927-5.6459 24.743-27.85 32.677-31.079l59.859-24.361 0.7428 40.744s9.8538 10.111 12.242 13.474c1.6047 2.2595 1.9923 4.3982 2.4038 5.2472 1.1293 2.33 10.905 11.348 10.905 11.348z"/>
   <path d="m85.35 221.38c-7.7426 0.88339-15.69 1.9732-26.49-3.0756-10.692-4.9987 0.11951-21.45 8.202-17.103 8.1391 4.3771 12.952 4.4733 18.288 20.179z"/>
   <path d="m81.264 207.32c-8.6698-2.8172-18.148-7.7856-23.228-13.165-5.0807-5.3795 8.9474-19.651 13.148-15.052 4.2816 4.6873 10.084 17.131 10.08 28.217z"/>
   <path d="m84.58 204.03c-4.2319-11.416-9.6296-16.465-10.201-25.884-0.57153-9.4189 19.057-13.766 18.981-4.2522-0.076576 9.5136-7.2385 16.604-8.7797 30.136z"/>
   <path d="m111.04 247.08c-9.4049 3.2679-19.519-0.82703-29.497-10.606-9.9788-9.7785-14.015-34.441-5.669-42.385 8.1507-7.7502 17.056-5.3116 24.106-2.6291l11.06 55.619z"/>
   <path d="m191.26 302.52c-13.262 12.581-26.099 7.1891-36.506-2.8097-10.601-10.194-18.571-22.224-18.571-22.224l-0.0428 11.271c-11.057-5.2888-18.598-15.228-21.466-27.482l-2.9598 11.843c-5.0805-5.4119-8.2716-10.127-12.939-21.231-2.5898-6.1604 11.37-8.8787 4.3622-22.914-7.008-14.035-17.1-34.534-13.153-43.65 3.9891-9.2117 8.8576-11.042 10.913-12.647 2.1087-1.6469 8.3054 4.8978 9.3383 5.6233 2.6697 1.875 5.7732 1.2594 6.4013 3.6746 0.634 2.4378 3.7975 5.6234 3.5607 6.4495-0.66686 2.3261-10.692 1.1254-14.427 12.382-2.512 7.571 9.6247 18.427 14.886 20.461 5.3602 2.0719 6.6247 7.9685 26.56 16.619 16.491 7.1555 54.097 7.7054 66.297 6.1485l-22.253 58.486z"/>
   <path d="m295.39 153.71c-10.357-12.335-10.162-14.037-16.012-17.653-5.9075-3.6517-20.819 2.9476-20.819 2.9476l36.831 14.705z"/>
   <path d="m218.03 202.22s2.677-8.4026 2.533-19.474c-0.14645-11.256-1.64-16.463-1.64-16.463l31.589 0.3091-3.5269 32.144-28.955 3.4842z"/>
   <path d="m222.36 190.63c-8.4012-0.20712-7.2241 1.5504-13.184 1.9062-5.96 0.35571-3.7503-0.98923-10.888-0.099701-7.2041 0.89783-13.131 3.4312-19.58 2.1894-6.3602-1.2247-15.304-4.8459-18.736-10.203-3.4319-5.3569 1.423-12.718 4.9715-11.225 3.1934 1.3437 1.3917 4.7711 3.915 7.4337 2.5901 2.7331 4.5314 2.7491 14.764 4.0638 10.182 1.3083 22.604-3.1176 39.587-1.5645 16.997 1.5543 21.38 13.18 23.473 15.371-2.42-4.0549-15.846-7.6636-24.323-7.8726z"/>
   <path d="m177.83 315.9c11.817-6.8281 18.406-12.674 28.853-15.74 10.796-3.168 15.542-7.9804 23.674-7.6658 8.1328 0.31458 10.134 4.7832 8.8568 8.9242-1.2768 4.141-3.75 7.8676-6.4745 11.325 8.7498 3.8795 22.282-6.41 26.941-21.084l0.2907 23.079c22.061-14.608 22.734-25.703 22.49-44.557l7.5132 14.026c8.0774-18.318 9.6774-24.554 3.7814-49.357l9.3976 15.925c1.3923-17.965-0.08075-28.564-6.0635-47.124l9.038 11.006c1.1334-16.201-5.124-28.835-13.082-42.044l-8.5316 5.075c10.173-5.5732 12.161-9.1888 13.667-12.433 1.5417-3.3202 4.0158-11.429 0.24731-15.321-3.9569-4.082-24.384-4.8216-24.384-4.8216-4.3609 2.6948-8.148 3.6893-13.083 8.0843 5.0605-4.2685 10.114-6.6454 14.786-8.267 0 0-7.3499-7.2161-10.564-7.6066-3.0568-0.3714-22.084-0.22568-32.922 2.145s-9.1098 7.9102-9.1098 7.9102c5.1675 0.77624 15.818 2.1408 27.988 1.9978-18.606 1.2535-25.45-6.1498-48.442 4.356 0 0 7.4103 3.7641 2.6166 8.3331-4.7208 4.4994-1.2215 10.352 2.598 13.251 3.8195 2.8992 10.112 2.2137 12.68-1.6543 2.5427-3.8294 10.841-8.3676 13.067-3.9228 2.1121 4.2169 7.3284 12.891 8.2527 18.569 0.89996 5.529-3.7684 8.5453-9.8664 7.9074-5.8944-0.61661-11.111-0.65692-14.572 1.6472-1.7274 1.15-5.598 0.025879-5.2968 2.8457 0.3239 3.0321 4.4585 2.5079 7.9105 6.244 3.8149 4.1287 5.8383 3.6059 9.0768 0.79108 3.4399-2.9899 8.1403-1.6716 11.925-2.0355-1.9203 7.5592-7.7544 16.302-17.076 13.555-9.0975-2.6807-14.998-2.2008-23.076-0.46591 5.7928 2.1658 10.072 4.3259 14.534 8.1891-16.26-1.9533-30.284 4.8033-41.488 16.3 5.6705 1.1565 11.341 2.313 17.011 3.4695-24.076 13.718-26.974 29.785-26.846 45.864 5.5127-7.1042 10.056-7.9697 16.495-9.963-10.698 11.12-7.2592 24.712-2.8147 33.242z"/>
   <path d="m238.63 206.27c6.8115-0.44705 18.617 4.0431 27.246-1.7882s9.4684-20.182 5.0172-26.085c-4.4701-5.9283-5.3911-12.458 1.3952-18.722 6.782-6.26 14.398-5.7148 20.448-4.8406"/>
   <path d="m243.63 155.13c0.25734 2.4038-2.1508 4.2538-5.3786 4.1321-3.2279-0.1217-6.0532-2.1691-6.3106-4.5729-0.25736-2.4038 2.1507-4.2538 5.3786-4.1321 3.2279 0.12176 6.0532 2.1691 6.3106 4.5729z" stroke-linecap="round"/>
  </g>
 </g>
</svg>
