<?xml version='1.0' encoding='utf-8'?>
<svg xmlns="http://www.w3.org/2000/svg" version="1.1" id="Layer_1" x="0px" y="0px" viewBox="0 0 3560.454 4000" enable-background="new 0 0 3560.454 4000"> <g> <path d="M2822.259,1207.564c221.594,20.406,407.832,1.09,526.418-94.22c-168.779,31.436-343.013,33.629-522.961,5.186 c332.83-34.315,597.177-137.514,734.739-368.233c-248.468,169.158-493.25,259.105-734.739,278.336 c223.203-63.169,398.064-152.542,496.165-283.523c-167.117,103.433-337.03,178.397-510.859,213.507 c316.314-162.297,623.23-351.81,723.501-592.977c-241.018,201.709-494.935,371.481-766.72,497.029 c209.92-131.308,377.656-266.179,452.944-408.86c-118.993,103.676-292.733,208.838-490.114,314.641 C3094.621,537.802,3406.592,218.692,3425.608,0c-158.738,232.885-429.591,447.514-758.941,652.62 c149.31-128.957,266.137-253.707,297.353-367.369c-91.395,103.83-220.183,201.002-382.928,288.709 c-133.591,71.995-238.413,152.493-242.895,265.37c-3.191,80.329,78.834,155.372,178.929,236.845 c41.626,33.882,69.094,88.805,26.797,133.117c-54.457,57.05-216.965,8.644-295.624,73.474 c-36.367,29.972-37.776,72.634-14.696,118.422c21.832,36.768,35.392,78.084,5.187,97.677 c-31.982,20.745-62.237,9.508-131.387-62.237c-34.58-35.877-131.136-71.841-173.744-97.677 c-80.032-48.529-82.969-139.515-55.323-234.251l82.407,42.067c11.259,5.748,23.256-6.656,16.974-17.626 c-30.413-53.101-45.934-102.684-36.278-146.322c32.582,14.466,58.777,27.66,119.723,10.316 c13.764-2.784,21.217-15.525,9.522-23.297c-19.811-13.167-46.514-17.578-65.281-35.426c-36.654-34.864-27.598-95.658-20.745-149.54 c36.244,13.094,73.878,22.53,113.005,28.037c14.208,2.001,22.856-15.505,12.355-25.284 c-61.736-57.494-98.593-134.202-118.445-224.039c71.181,14.511,142.199,15.077,213.082,4.137 c18.471-2.851,19.634-29.253,1.514-33.843c-131.922-33.419-233.568-88.369-300.172-168.241 c-45.072-62.085-134.317-52.034-233.387-25.932c-29.599,8.275-62.267-27.368-123.61-50.135 c-83.846-31.119-180.007,18.548-183.251,99.406c57.835-31.079,144.353-27.661,168.557,12.966 c60.792,102.044,130.164,181.209,210.051,279.568c2.915,3.587-0.456,8.944-4.896,7.665 c-93.588-26.947-192.298-65.437-265.664-111.76c40.628,107.185,129.584,111.457,229.931,190.167 c52.626,41.278,65.693,124.473,43.221,166.829c-41.043,77.349-120.854,122.029-146.085,200.541 c-34.714,108.028-45.789,223.624-105.455,266.234c-42.056,30.033-69.983,71.648-116.694,99.406 c-48.696,28.936-98.596-13.123-76.932-60.508c17.139-37.49,31.546-77.311,23.339-126.202 c-9.062-53.979-69.443-73.336-146.082-74.339c-81.294-1.063-166.192,2.234-187.576-45.813 c-33.971-76.333,55.868-148.893,139.169-221.286c52.066-45.249,75.036-103.469,76.066-167.693 c0.809-50.329-22.032-99.171-76.066-131.388c-178.345-106.338-372.214-216.822-552.35-368.233 c58.152,124.779,162.473,243.638,314.64,360.453C588.16,458.512,319.848,242.245,106.321,10.373 c75.257,266.588,331.659,517.458,706.212,758.077c-153.55-78.963-302.499-165.14-446.893-258.454 c34.911,117.676,196.705,233.033,407.995,347.488C487.867,728.836,238.503,576.105,31.982,395.03 c141.79,231.234,380.874,416.399,700.162,563.588c-162.819-45.156-331.377-116.672-503.943-206.591 c66.373,134.525,247.357,221.966,489.25,284.387C491.316,1010.311,249.629,911.424,0,775.365 c114.594,210.597,375.755,312.967,721.771,352.674c-159.524,16.047-340.27,12.408-534.198-3.457 c139.893,88.747,327.168,112.559,544.57,95.083c-204.13,57.057-432.948,68.741-682.01,43.22 c175.041,160.501,429.151,123.603,701.028,42.355c-94.302,64.456-261.961,134.652-440.843,205.727 c151.95,10.888,313.075-37.394,478.875-115.829c-168.615,117.335-367.674,223.358-587.789,321.556 c187.105,27.337,414.03-88.067,650.025-235.981c-104.829,99.047-221.817,199.411-348.351,300.81 c145.768,9.958,284.221-93.682,420.961-223.879c0,0-194.49,241.166-404.538,401.945c-15.037,11.51-0.177,24.537,21.124,27.736 c30.003,4.506,60.52-4.176,84.845-22.309c109.778-81.834,240.617-195.697,377.231-318.339 c-67.76,111.753-147.787,222.649-238.574,332.793c123.32-70.242,227.915-159.838,312.91-269.692 c-66.938,149.419-173.572,293.017-310.317,432.199c173.167-60.524,300.645-192.83,392.436-381.199 c-39.323,134.376-108.296,293.769-189.303,463.317c135.059-104.985,221.417-256.633,279.201-435.656 c-24.551,155.536-75.013,306.8-151.271,453.809c118.193-63.052,195.951-207.501,237.71-424.419 c-6.962,121.948-26.538,245.633-57.05,370.827c86.355-83.315,130.845-206.89,149.542-355.267 c-6.44,106.496,14.713,211.335,61.37,314.641c32.221,85.192-25.777,138.62-94.218,219.557 c-39.751,47.008-111.507,219.556-111.507,219.556l79.525-4.322l-61.373,129.66c-14.116,47.947-17.213,97.026-12.102,146.948 c36.776-59.117,79.571-113.157,127.932-162.507c21.146-34.328,33.467-74.411,39.761-118.423l19.016,2.593 c-16.173,42.24-28.1,87.305-36.305,134.846c-50.309,182.954-141.69,314.96-289.572,376.878 c-77.74-9.358-147.827-35.843-211.778-76.067c-52.332-16.73-98.121-10.307-137.439,19.017 c-38.241,18.105-51.393,49.498-47.541,89.897c19.279-27.082,44.548-41.385,76.066-42.355c27.041,4.715,52.527,16.684,76.932,33.711 c72.992-11.197,136.419-2.927,189.303,26.796l-151.271,0.865c-38.004,4.114-53.381,29.655-62.237,61.372 c-52.261,9.625-64.498,43.953-57.914,89.898c14.264-24.494,32.317-42.429,58.78-45.813c49.178,0.948,86.1-21.885,117.557-55.321 h134.846c-86.831,30.393-142.702,73.71-133.116,144.354c-28.445,30.799-24.217,63.999-1.73,98.541 c8.228-32.622,20.865-58.483,38.898-76.067c67,8.138,94.263-36.893,101.998-108.049c42.909-26.778,76.051-58.758,99.407-95.948 c49.838,0.774,90.002-14.506,118.421-49.271c47.796,22.698,101.271,20.102,157.321,6.051c18.461,0.591,33.208,8.86,44.948,23.339 c2.665-33.109-10.011-60.615-41.491-81.253c-11.837-65.107-65.279-52.465-140.032,0c-9.857-15.485-8.582-32.355,0-50.135 c43.927-84.934,93.411-162.409,148.265-232.675c21.196-27.149,35.93-58.854,42.188-92.724 c7.566-40.946,11.019-87.374,12.682-136.189h19.88c-2.593,165.964-62.135,304.098-57.914,395.894 c53.04-108.775,88.699-227.27,108.914-354.403l12.966-0.864l-4.323,191.896c38.845-51.222,53.036-115.881,43.221-193.625 l23.339-0.864c-5.052,214.57-6.351,436.077-76.499,530.308c-83.415,121.448-203.566,136.143-177.634,254.133 c108.051-120.583,214.371-84.279,235.981-182.82c17.833,87.038-8.428,213.29-68.72,273.582 c-80.617,80.616-156.24,114.749-137.439,210.049c89.411-50.366,167.127-101.39,211.345-154.295 c8.539,112.08-28.035,205.237-95.948,285.251c41.99-0.905,74.841-10.847,97.245-31.118c7.526,83.981,27.469,161.538,60.94,232.091 c33.787-73.828,54.498-149.757,62.237-227.769c29.877,19.027,62.221,30.09,97.678,31.118 c-62.013-78.088-90.24-183.753-100.271-304.269c55.799,61.408,130.09,110.72,220.421,149.541 c4.799-69.431-61.517-130.573-155.592-213.506c-61.882-54.555-70.556-149.914-64.83-253.269 c60.292,108.914,116.694,66.775,256.726,171.151c3.89-114.749-112.804-141.977-192.76-251.54 c-48.446-64.44-59.393-173.334-71.746-292.167c-6.382-61.394-10.973-145.219-11.236-235.98h23.339 c-7.626,76.67,8.229,147.626,44.948,213.507c-9.375-72.167-14.639-143.637-15.559-214.371h24.202v94.336 c0,30.59,7.202,60.854,21.607,87.841c24.297,45.521,53.159,76.877,76.071,148.887c4.337-75.458-6.834-148.367-33.711-218.693 c-10.145-35.731-6.055-86.821,0-140.032c9.633,94.61,29.6,181.217,79.525,244.625c52.401,61.614,98.541,125.337,136.573,205.726 c14.04,29.672,39.979,64.83,25.932,76.067c-9.253,7.403-21.462,5.728-29.389,0c-44.91-57.383-84.311-74.24-129.66-35.872 c-33.947,28.719-50.748,61.142-40.628,107.617c42.572-44.084,51.248-38.831,94.221-20.746 c41.157,17.321,78.766,7.551,107.184-10.373c32.982,30.337,71.903,44.106,116.694,41.491c15.246,37.059,48.354,67.64,92.491,94.219 c12.201,69.221,51.084,102.544,110.643,108.05c16.963,5.466,29.397,24.316,39.761,49.271c13.213-29.008,5.242-58.825-12.966-89.033 c20.655-46.813-30.661-89.011-133.118-127.931c42.34,7.547,85.863,8.325,130.524,2.593c20.053,39.147,61.753,47.817,114.101,41.491 c30.69,3.644,57.135,20.324,82.119,41.491c-6.104-43.571-29.423-75.666-79.525-89.897c1.118-47.651-34.383-58.221-99.405-38.898 c-36.369,2.032-66.963,0.072-89.033-7.78c46.215-11.473,87.966-24.028,120.152-38.898c55.322,6.747,89.15-15.974,125.337-30.254 c27.921-11.019,59.417,7.134,88.168,25.932c-4.425-46.638-49.11-61.83-112.371-83.846c-52.002-18.099-92.389-1.861-144.355,33.711 c-51.546,35.283-109.863,47.558-164.236,49.27c-32.886-33.395-74.114-59.554-124.473-77.795 c-50.964-95.396-93.959-190.645-138.303-280.93c-20.736-42.217-29.596-108.87-35.441-178.93 c10.373,132.253,84.712,159.914,178.93,288.709c10.373-105.457-47.541-177.202-82.116-272.285 c32.154,9.85,60.178,15.024,79.523,10.373c-36.606-37.074-78.659-95.949-84.709-132.253c-5.966-35.791-51-138.304-108.051-172.88 c-40.068-24.284-36.885-103.292-8.643-152.998c46.104-81.147,64.155-177.278,58.777-286.115 c14.891,128.878,60.598,244.168,145.219,342.301c-26.907-107.154-45.632-228.775-59.643-358.725 c32.112,169.45,133.982,366.505,247.219,415.776c-72.52-150.082-127.526-298.184-157.321-443.436 c70.828,183.952,170.034,332.033,301.675,439.114c-76.18-133.9-146.698-296.568-214.37-473.69 c88.293,190.576,227.904,324.675,427.012,393.301c-153.156-137.989-264.59-284.205-331.929-439.114 c104.834,128.813,213.157,235.684,332.792,271.42c-93.093-104.48-180.826-215.668-264.506-331.929 c176.052,194.47,353.572,331.263,534.198,345.76c-194.487-137.83-346.741-280.613-446.029-429.606 c125.881,120.431,264.946,199.28,426.148,208.32c-136.909-75.974-255.698-172.093-363.047-280.929 c261.904,153.557,511.407,283.845,638.79,184.981c-249.076-80.319-461.847-170.802-570.502-290.438 c150.229,88.084,310.541,130.682,486.656,101.999c-189.845-41.58-348.208-102.718-457.267-194.49 c312.459,97.519,574.343,108.366,727.824-66.559C3268.145,1275.841,3028.873,1276.671,2822.259,1207.564z M1706.321,441.672 c-9.295-3.851-18.152-8.09-18.152-18.152c0-9.957,8.091-18.152,18.152-18.152s16.603,8.316,18.152,18.152 c2.192,13.918,6.483,57.517,6.483,57.517S1717.909,446.472,1706.321,441.672z"/> <path d="M1401.188,572.231c60.288-39.38,144.396-5.462,252.406,64.83c-43.317-54.368-91.477-101.795-151.271-130.524 c-38.819-18.652-81.258-24.475-116.694,0.865c-27.503,19.667-67.45,39.354-118.421,52.728 C1316.787,576.921,1367.415,594.292,1401.188,572.231z"/> </g> </svg>